<?xml version="1.0" encoding="iso-8859-1"?>
<!-- Uploaded to: SVG Repo, www.svgrepo.com, Generator: SVG Repo Mixer Tools -->
<svg height="800px" width="800px" version="1.1" id="Layer_1" xmlns="http://www.w3.org/2000/svg" xmlns:xlink="http://www.w3.org/1999/xlink" 
	 viewBox="0 0 512 512" xml:space="preserve">
<path style="fill:#CAEEC5;" d="M257.943,457.152c-111.803,0-203.278-93.422-203.278-207.604v-69.2h406.559v69.2
	C461.224,363.73,369.746,457.152,257.943,457.152L257.943,457.152L257.943,457.152z"/>
<path style="fill:#FFD63E;" d="M55.737,270.823V245.83c101.481,81.96,189.968-43.257,267.183,0.523
	c57.798,32.771,112.559,36.915,138.306-0.523l0.002,0.032v3.686c0,114.182-91.478,207.604-203.281,207.604
	C153.172,457.152,66.254,375.11,55.737,270.823z"/>
<path style="fill:#5B7F81;" d="M202.427,308.196c0.168,0.299,0.312,0.604,0.442,0.913c14.425-3.906,30.274,2.322,38.073,16.113
	l14.06,24.865c9.316,16.481,3.732,37.751-12.402,47.265c-16.139,9.518-36.963,3.821-46.284-12.663l-14.054-24.867
	c-7.805-13.806-5.15-30.968,5.404-41.771c-0.278-0.355-0.538-0.729-0.766-1.134L202.427,308.196z"/>
<path d="M54.665,171.444c-4.917,0-8.904,3.987-8.904,8.904v69.2c0,57.567,22.109,111.85,62.256,152.85
	c40.194,41.051,93.44,63.658,149.927,63.658s109.733-22.607,149.929-63.658c40.146-41,62.257-95.283,62.257-152.85v-69.2
	c0-4.917-3.987-8.904-8.904-8.904H124.318L55.866,52.115c-2.445-4.265-7.887-5.74-12.154-3.293
	c-4.266,2.446-5.74,7.889-3.293,12.154l63.368,110.467H54.665V171.444z M452.32,189.253v60.296
	c0,109.564-87.197,198.699-194.377,198.699c-107.178,0-194.374-89.136-194.374-198.699v-60.296h50.433l68.315,119.09
	c-15.374,13.636-19.606,36.691-8.941,55.168l14.648,25.371c7.863,13.617,22.568,22.076,38.381,22.076
	c7.716,0,15.327-2.04,22.006-5.898c10.193-5.884,17.495-15.42,20.557-26.853c3.062-11.431,1.507-23.339-4.375-33.533l-14.647-25.37
	c-7.863-13.616-22.57-22.074-38.382-22.074c-4.688,0-9.36,0.776-13.805,2.242l-63.226-110.219L452.32,189.253L452.32,189.253z
	 M198.494,318.531c0.307-0.179,0.621-0.348,0.932-0.511c3.725-1.949,7.922-2.98,12.137-2.98c9.471,0,18.268,5.047,22.96,13.171
	l14.645,25.367c3.505,6.074,4.429,13.184,2.597,20.021c-1.831,6.836-6.184,12.532-12.259,16.038
	c-3.978,2.297-8.509,3.512-13.102,3.512c-9.471,0-18.267-5.047-22.959-13.172l-14.648-25.371
	C181.522,342.001,185.858,325.825,198.494,318.531z M472.764,503.095c0,4.917-3.986,8.904-8.904,8.904H52.033
	c-4.917,0-8.904-3.987-8.904-8.904s3.987-8.904,8.904-8.904H463.86C468.778,494.191,472.764,498.178,472.764,503.095z
	 M358.621,342.511c0-4.917,3.987-8.904,8.904-8.904h1.939c4.917,0,8.904,3.987,8.904,8.904s-3.987,8.904-8.904,8.904h-1.939
	C362.607,351.415,358.621,347.43,358.621,342.511z M132.739,315.592c0,4.917-3.986,8.904-8.904,8.904h-1.939
	c-4.917,0-8.904-3.987-8.904-8.904c0-4.917,3.987-8.904,8.904-8.904h1.939C128.753,306.688,132.739,310.675,132.739,315.592z
	 M287.274,304.397c0-4.917,3.987-8.904,8.904-8.904h1.939c4.917,0,8.904,3.987,8.904,8.904c0,4.917-3.987,8.904-8.904,8.904h-1.939
	C291.261,313.301,287.274,309.316,287.274,304.397z M312.082,385.354h1.933c4.917,0,8.904,3.987,8.904,8.904
	s-3.987,8.904-8.904,8.904h-1.933c-4.919,0-8.904-3.987-8.904-8.904S307.163,385.354,312.082,385.354z M275.728,64.688
	c-10.325-15.725-14.654-38.27-11.029-57.436c0.914-4.832,5.57-8.008,10.405-7.095c4.832,0.914,8.008,5.572,7.095,10.404
	c-2.769,14.643,0.612,32.466,8.416,44.351c14.373,21.887,17.517,60.935-0.951,81.975c-1.76,2.006-4.222,3.031-6.695,3.031
	c-2.086,0-4.179-0.728-5.87-2.213c-3.696-3.245-4.061-8.87-0.818-12.566C287.791,112.025,287.523,82.648,275.728,64.688z
	 M225.717,64.686c-10.322-15.718-14.653-38.263-11.03-57.433c0.914-4.832,5.57-8.011,10.402-7.096
	c4.833,0.913,8.009,5.571,7.097,10.403c-2.768,14.648,0.615,32.471,8.418,44.351c14.372,21.894,17.514,60.942-0.953,81.975
	c-1.76,2.005-4.221,3.03-6.695,3.03c-2.086,0-4.181-0.729-5.871-2.214c-3.695-3.245-4.06-8.871-0.816-12.566
	C237.778,112.028,237.51,82.651,225.717,64.686z"/>
</svg>